<mxfile host="app.diagrams.net" modified="2023-09-22T12:29:25.774Z" agent="Mozilla/5.0 (Windows NT 10.0; Win64; x64) AppleWebKit/537.36 (KHTML, like Gecko) Chrome/117.0.0.0 Safari/537.36 Edg/117.0.2045.36" etag="r9Kcwv3jdERVMEgCFXq9" version="21.8.0" type="device" pages="4">
  <diagram name="L1 Task1" id="X4PeXYpNoVI3s8DyfwNT">
    <mxGraphModel dx="1042" dy="569" grid="1" gridSize="10" guides="1" tooltips="1" connect="1" arrows="1" fold="1" page="1" pageScale="1" pageWidth="827" pageHeight="1169" math="0" shadow="0">
      <root>
        <mxCell id="0" />
        <mxCell id="1" parent="0" />
        <mxCell id="GoiOAOwUm0gHzqDCd_nv-18" style="edgeStyle=orthogonalEdgeStyle;rounded=0;orthogonalLoop=1;jettySize=auto;html=1;exitX=0.5;exitY=1;exitDx=0;exitDy=0;exitPerimeter=0;entryX=0.5;entryY=0;entryDx=0;entryDy=0;" parent="1" source="GoiOAOwUm0gHzqDCd_nv-1" target="GoiOAOwUm0gHzqDCd_nv-2" edge="1">
          <mxGeometry relative="1" as="geometry" />
        </mxCell>
        <mxCell id="GoiOAOwUm0gHzqDCd_nv-1" value="main" style="strokeWidth=2;html=1;shape=mxgraph.flowchart.terminator;whiteSpace=wrap;" parent="1" vertex="1">
          <mxGeometry x="364" y="20" width="100" height="40" as="geometry" />
        </mxCell>
        <mxCell id="GoiOAOwUm0gHzqDCd_nv-19" style="edgeStyle=orthogonalEdgeStyle;rounded=0;orthogonalLoop=1;jettySize=auto;html=1;exitX=0.5;exitY=1;exitDx=0;exitDy=0;entryX=0.5;entryY=0;entryDx=0;entryDy=0;" parent="1" source="GoiOAOwUm0gHzqDCd_nv-2" target="GoiOAOwUm0gHzqDCd_nv-3" edge="1">
          <mxGeometry relative="1" as="geometry" />
        </mxCell>
        <mxCell id="GoiOAOwUm0gHzqDCd_nv-2" value="инициализация vector" style="rounded=1;whiteSpace=wrap;html=1;absoluteArcSize=1;arcSize=14;strokeWidth=2;" parent="1" vertex="1">
          <mxGeometry x="364" y="80" width="100" height="50" as="geometry" />
        </mxCell>
        <mxCell id="GoiOAOwUm0gHzqDCd_nv-3" value="инициализация vector" style="rounded=1;whiteSpace=wrap;html=1;absoluteArcSize=1;arcSize=14;strokeWidth=2;" parent="1" vertex="1">
          <mxGeometry x="364" y="150" width="100" height="50" as="geometry" />
        </mxCell>
        <mxCell id="GoiOAOwUm0gHzqDCd_nv-8" style="edgeStyle=orthogonalEdgeStyle;rounded=0;orthogonalLoop=1;jettySize=auto;html=1;exitX=1;exitY=0.5;exitDx=0;exitDy=0;exitPerimeter=0;entryX=0;entryY=0.5;entryDx=0;entryDy=0;" parent="1" source="GoiOAOwUm0gHzqDCd_nv-4" target="GoiOAOwUm0gHzqDCd_nv-7" edge="1">
          <mxGeometry relative="1" as="geometry" />
        </mxCell>
        <mxCell id="GoiOAOwUm0gHzqDCd_nv-13" style="edgeStyle=orthogonalEdgeStyle;rounded=0;orthogonalLoop=1;jettySize=auto;html=1;exitX=0.5;exitY=1;exitDx=0;exitDy=0;exitPerimeter=0;entryX=0.5;entryY=0;entryDx=0;entryDy=0;" parent="1" source="GoiOAOwUm0gHzqDCd_nv-4" target="GoiOAOwUm0gHzqDCd_nv-5" edge="1">
          <mxGeometry relative="1" as="geometry" />
        </mxCell>
        <mxCell id="GoiOAOwUm0gHzqDCd_nv-4" value="остались элементы в коллекции?" style="strokeWidth=2;html=1;shape=mxgraph.flowchart.decision;whiteSpace=wrap;" parent="1" vertex="1">
          <mxGeometry x="331" y="270" width="166" height="100" as="geometry" />
        </mxCell>
        <mxCell id="GoiOAOwUm0gHzqDCd_nv-5" value="Выход из цикла" style="rounded=1;whiteSpace=wrap;html=1;absoluteArcSize=1;arcSize=14;strokeWidth=2;" parent="1" vertex="1">
          <mxGeometry x="364" y="410" width="100" height="50" as="geometry" />
        </mxCell>
        <mxCell id="GoiOAOwUm0gHzqDCd_nv-7" value="вывод элемента в консоль" style="rounded=1;whiteSpace=wrap;html=1;absoluteArcSize=1;arcSize=14;strokeWidth=2;" parent="1" vertex="1">
          <mxGeometry x="540" y="295" width="100" height="50" as="geometry" />
        </mxCell>
        <mxCell id="GoiOAOwUm0gHzqDCd_nv-9" style="edgeStyle=orthogonalEdgeStyle;rounded=0;orthogonalLoop=1;jettySize=auto;html=1;exitX=0.5;exitY=1;exitDx=0;exitDy=0;entryX=0.5;entryY=0;entryDx=0;entryDy=0;entryPerimeter=0;" parent="1" source="GoiOAOwUm0gHzqDCd_nv-3" target="GoiOAOwUm0gHzqDCd_nv-4" edge="1">
          <mxGeometry relative="1" as="geometry" />
        </mxCell>
        <mxCell id="GoiOAOwUm0gHzqDCd_nv-14" style="edgeStyle=orthogonalEdgeStyle;rounded=0;orthogonalLoop=1;jettySize=auto;html=1;exitX=1;exitY=0.5;exitDx=0;exitDy=0;entryX=0.5;entryY=0;entryDx=0;entryDy=0;entryPerimeter=0;" parent="1" source="GoiOAOwUm0gHzqDCd_nv-7" target="GoiOAOwUm0gHzqDCd_nv-4" edge="1">
          <mxGeometry relative="1" as="geometry">
            <Array as="points">
              <mxPoint x="660" y="320" />
              <mxPoint x="660" y="240" />
              <mxPoint x="414" y="240" />
            </Array>
          </mxGeometry>
        </mxCell>
        <mxCell id="GoiOAOwUm0gHzqDCd_nv-16" value="return 0" style="strokeWidth=2;html=1;shape=mxgraph.flowchart.terminator;whiteSpace=wrap;" parent="1" vertex="1">
          <mxGeometry x="364" y="480" width="100" height="40" as="geometry" />
        </mxCell>
        <mxCell id="GoiOAOwUm0gHzqDCd_nv-17" style="edgeStyle=orthogonalEdgeStyle;rounded=0;orthogonalLoop=1;jettySize=auto;html=1;exitX=0.5;exitY=1;exitDx=0;exitDy=0;entryX=0.5;entryY=0;entryDx=0;entryDy=0;entryPerimeter=0;" parent="1" source="GoiOAOwUm0gHzqDCd_nv-5" target="GoiOAOwUm0gHzqDCd_nv-16" edge="1">
          <mxGeometry relative="1" as="geometry" />
        </mxCell>
      </root>
    </mxGraphModel>
  </diagram>
  <diagram id="hJw8mmQR5wP1SZdaDKHB" name="L1 Task2">
    <mxGraphModel dx="1042" dy="569" grid="1" gridSize="10" guides="1" tooltips="1" connect="1" arrows="1" fold="1" page="1" pageScale="1" pageWidth="827" pageHeight="1169" math="0" shadow="0">
      <root>
        <mxCell id="0" />
        <mxCell id="1" parent="0" />
        <mxCell id="Vyr3DIcDQALw28sbJDTD-5" style="edgeStyle=orthogonalEdgeStyle;rounded=0;orthogonalLoop=1;jettySize=auto;html=1;exitX=0.5;exitY=1;exitDx=0;exitDy=0;exitPerimeter=0;entryX=0.5;entryY=0;entryDx=0;entryDy=0;" edge="1" parent="1" source="Vyr3DIcDQALw28sbJDTD-1" target="Vyr3DIcDQALw28sbJDTD-3">
          <mxGeometry relative="1" as="geometry" />
        </mxCell>
        <mxCell id="Vyr3DIcDQALw28sbJDTD-1" value="main" style="strokeWidth=2;html=1;shape=mxgraph.flowchart.terminator;whiteSpace=wrap;" vertex="1" parent="1">
          <mxGeometry x="364" y="20" width="100" height="40" as="geometry" />
        </mxCell>
        <mxCell id="Vyr3DIcDQALw28sbJDTD-10" style="edgeStyle=orthogonalEdgeStyle;rounded=0;orthogonalLoop=1;jettySize=auto;html=1;exitX=0.5;exitY=1;exitDx=0;exitDy=0;entryX=0.5;entryY=0;entryDx=0;entryDy=0;" edge="1" parent="1" source="Vyr3DIcDQALw28sbJDTD-3" target="Vyr3DIcDQALw28sbJDTD-6">
          <mxGeometry relative="1" as="geometry" />
        </mxCell>
        <mxCell id="Vyr3DIcDQALw28sbJDTD-3" value="объявление tc:int, tf:int" style="rounded=1;whiteSpace=wrap;html=1;absoluteArcSize=1;arcSize=14;strokeWidth=2;" vertex="1" parent="1">
          <mxGeometry x="364" y="90" width="100" height="50" as="geometry" />
        </mxCell>
        <mxCell id="Vyr3DIcDQALw28sbJDTD-11" style="edgeStyle=orthogonalEdgeStyle;rounded=0;orthogonalLoop=1;jettySize=auto;html=1;exitX=0.5;exitY=1;exitDx=0;exitDy=0;entryX=0.5;entryY=0;entryDx=0;entryDy=0;" edge="1" parent="1" source="Vyr3DIcDQALw28sbJDTD-6" target="Vyr3DIcDQALw28sbJDTD-7">
          <mxGeometry relative="1" as="geometry" />
        </mxCell>
        <mxCell id="Vyr3DIcDQALw28sbJDTD-6" value="Вывод сообщения в консоль &quot;Введите температуру (Цельсий): &lt;span style=&quot;background-color: initial;&quot;&gt;&quot;&lt;/span&gt;" style="rounded=1;whiteSpace=wrap;html=1;absoluteArcSize=1;arcSize=14;strokeWidth=2;" vertex="1" parent="1">
          <mxGeometry x="326" y="180" width="176" height="100" as="geometry" />
        </mxCell>
        <mxCell id="Vyr3DIcDQALw28sbJDTD-12" style="edgeStyle=orthogonalEdgeStyle;rounded=0;orthogonalLoop=1;jettySize=auto;html=1;exitX=0.5;exitY=1;exitDx=0;exitDy=0;entryX=0.5;entryY=0;entryDx=0;entryDy=0;" edge="1" parent="1" source="Vyr3DIcDQALw28sbJDTD-7" target="Vyr3DIcDQALw28sbJDTD-8">
          <mxGeometry relative="1" as="geometry" />
        </mxCell>
        <mxCell id="Vyr3DIcDQALw28sbJDTD-7" value="ввод значения в переменную tc из консоли" style="rounded=1;whiteSpace=wrap;html=1;absoluteArcSize=1;arcSize=14;strokeWidth=2;" vertex="1" parent="1">
          <mxGeometry x="326" y="300" width="175" height="100" as="geometry" />
        </mxCell>
        <mxCell id="Vyr3DIcDQALw28sbJDTD-13" style="edgeStyle=orthogonalEdgeStyle;rounded=0;orthogonalLoop=1;jettySize=auto;html=1;exitX=0.5;exitY=1;exitDx=0;exitDy=0;entryX=0.5;entryY=0;entryDx=0;entryDy=0;" edge="1" parent="1" source="Vyr3DIcDQALw28sbJDTD-8" target="Vyr3DIcDQALw28sbJDTD-9">
          <mxGeometry relative="1" as="geometry" />
        </mxCell>
        <mxCell id="Vyr3DIcDQALw28sbJDTD-8" value="перевод значения из Цельсия в Фаренгейта и присвоение результата tf" style="rounded=1;whiteSpace=wrap;html=1;absoluteArcSize=1;arcSize=14;strokeWidth=2;" vertex="1" parent="1">
          <mxGeometry x="318" y="430" width="191.5" height="70" as="geometry" />
        </mxCell>
        <mxCell id="Vyr3DIcDQALw28sbJDTD-9" value="Вывод значения tf" style="rounded=1;whiteSpace=wrap;html=1;absoluteArcSize=1;arcSize=14;strokeWidth=2;" vertex="1" parent="1">
          <mxGeometry x="348" y="530" width="131" height="44.5" as="geometry" />
        </mxCell>
        <mxCell id="Vyr3DIcDQALw28sbJDTD-14" value="return 0" style="strokeWidth=2;html=1;shape=mxgraph.flowchart.terminator;whiteSpace=wrap;" vertex="1" parent="1">
          <mxGeometry x="364" y="610" width="100" height="40" as="geometry" />
        </mxCell>
        <mxCell id="Vyr3DIcDQALw28sbJDTD-15" style="edgeStyle=orthogonalEdgeStyle;rounded=0;orthogonalLoop=1;jettySize=auto;html=1;exitX=0.5;exitY=1;exitDx=0;exitDy=0;entryX=0.5;entryY=0;entryDx=0;entryDy=0;entryPerimeter=0;" edge="1" parent="1" source="Vyr3DIcDQALw28sbJDTD-9" target="Vyr3DIcDQALw28sbJDTD-14">
          <mxGeometry relative="1" as="geometry" />
        </mxCell>
      </root>
    </mxGraphModel>
  </diagram>
  <diagram id="bEgBHY72O4R9WVRL7g_8" name="L1 Task3">
    <mxGraphModel dx="1042" dy="569" grid="1" gridSize="10" guides="1" tooltips="1" connect="1" arrows="1" fold="1" page="1" pageScale="1" pageWidth="827" pageHeight="1169" math="0" shadow="0">
      <root>
        <mxCell id="0" />
        <mxCell id="1" parent="0" />
      </root>
    </mxGraphModel>
  </diagram>
  <diagram id="YGFFT4sDhzvY4RklicUL" name="fghjkl">
    <mxGraphModel dx="1042" dy="569" grid="1" gridSize="10" guides="1" tooltips="1" connect="1" arrows="1" fold="1" page="1" pageScale="1" pageWidth="827" pageHeight="1169" math="0" shadow="0">
      <root>
        <mxCell id="0" />
        <mxCell id="1" parent="0" />
      </root>
    </mxGraphModel>
  </diagram>
</mxfile>
